<?xml version="1.0" encoding="utf-8"?>
<!-- Generator: Adobe Illustrator 28.0.0, SVG Export Plug-In . SVG Version: 6.00 Build 0)  -->
<svg version="1.1" id="Layer_1" xmlns="http://www.w3.org/2000/svg" xmlns:xlink="http://www.w3.org/1999/xlink" x="0px" y="0px"
	 viewBox="0 0 90 90" style="enable-background:new 0 0 90 90;" xml:space="preserve">
<style type="text/css">
	.st0{fill:#1E2F38;}
</style>
<g>
	<path class="st0" d="M29.1,38.96l-1.53,1.12c-0.64-0.69-1.35-1.09-2.33-1.09c-2.26,0-3.78,1.74-3.78,3.94c0,2.28,1.47,4.1,3.78,4.1
		c1.04,0,1.86-0.55,2.48-1.34l1.62,1.16c-0.95,1.34-2.5,1.96-4.12,1.96c-3.39,0-5.84-2.33-5.84-5.76s2.3-5.85,5.84-5.85
		C26.82,37.22,28.06,37.78,29.1,38.96z"/>
	<path class="st0" d="M31.31,37.49h7.31v1.78h-5.34v2.72h5.07v1.78h-5.07v2.99h5.63v1.78h-7.59C31.31,48.54,31.31,37.49,31.31,37.49
		z"/>
	<path class="st0" d="M48.32,38.35l-1.43,1.51c-0.44-0.61-1.17-0.87-1.94-0.87c-1.1,0-1.81,0.56-1.81,1.42
		c0,0.75,0.62,1.16,1.72,1.5c1.75,0.55,3.52,1.1,3.52,3.38c0,2.28-1.79,3.52-3.97,3.52c-1.56,0-2.83-0.47-3.69-1.49l1.48-1.43
		c0.48,0.73,1.3,1.16,2.18,1.16c1.07,0,1.94-0.62,1.94-1.51c0-0.83-0.56-1.26-1.98-1.7c-1.98-0.61-3.26-1.27-3.26-3.28
		c0-2,1.66-3.34,4.07-3.34C46.41,37.22,47.54,37.62,48.32,38.35z"/>
	<path class="st0" d="M57.9,38.35l-1.43,1.51c-0.44-0.61-1.17-0.87-1.94-0.87c-1.1,0-1.81,0.56-1.81,1.42c0,0.75,0.62,1.16,1.72,1.5
		c1.75,0.55,3.52,1.1,3.52,3.38c0,2.28-1.79,3.52-3.97,3.52c-1.56,0-2.83-0.47-3.69-1.49l1.48-1.43c0.48,0.73,1.3,1.16,2.18,1.16
		c1.07,0,1.94-0.62,1.94-1.51c0-0.83-0.56-1.26-1.98-1.7c-1.98-0.61-3.26-1.27-3.26-3.28c0-2,1.66-3.34,4.07-3.34
		C55.99,37.22,57.12,37.62,57.9,38.35z"/>
	<path class="st0" d="M65.02,37.49c2.86,0,5.56,1.81,5.56,5.53c0,3.91-3.41,5.53-5.8,5.53h-4.16V37.5h4.39V37.49z M64.14,46.76
		c2.35,0,4.39-1.07,4.39-3.74s-1.73-3.74-4.13-3.74h-1.81v7.49H64.14z"/>
</g>
</svg>
