<?xml version="1.0" encoding="utf-8"?>
<!-- Generator: Adobe Illustrator 28.0.0, SVG Export Plug-In . SVG Version: 6.00 Build 0)  -->
<svg version="1.1" id="Layer_1" xmlns="http://www.w3.org/2000/svg" xmlns:xlink="http://www.w3.org/1999/xlink" x="0px" y="0px"
	 viewBox="0 0 90 90" style="enable-background:new 0 0 90 90;" xml:space="preserve">
<style type="text/css">
	.st0{fill:#1E2F38;}
</style>
<g>
	<path class="st0" d="M10.3,37.48h1.96v4.68h0.09l4.56-4.68h2.65l-5.16,5.1l5.5,5.94h-2.74l-4.78-5.42h-0.1v5.42h-1.96V37.48H10.3z"
		/>
	<path class="st0" d="M20.39,48.53l4.8-11.04h1.7l4.76,11.04H29.4l-1.03-2.52h-4.78l-1,2.52C22.59,48.53,20.39,48.53,20.39,48.53z
		 M24.25,44.32h3.43l-1.7-4.49L24.25,44.32z"/>
	<path class="st0" d="M37.9,37.48c2.85,0,5.56,1.81,5.56,5.52c0,3.91-3.39,5.53-5.8,5.53h-4.16V37.5h4.39V37.48z M37.02,46.75
		c2.35,0,4.39-1.07,4.39-3.74s-1.73-3.74-4.13-3.74h-1.81v7.49H37.02z"/>
	<path class="st0" d="M47.89,48.53h-1.96V37.5h1.96V48.53z"/>
	<path class="st0" d="M50.93,48.53V37.5h3.8c1.42,0,3.99,0.4,3.99,3.16c0,2.31-1.35,3.3-4.3,3.3h-1.51v4.56h-1.98V48.53z
		 M52.89,42.28h1.27c1.16,0,2.48-0.13,2.48-1.56c0-1.04-0.77-1.55-2.29-1.55h-1.47V42.28z"/>
	<path class="st0" d="M58.7,48.53l4.8-11.04h1.7l4.76,11.04h-2.25l-1.03-2.52H61.9l-1,2.52C60.9,48.53,58.7,48.53,58.7,48.53z
		 M62.56,44.32H66l-1.7-4.49L62.56,44.32z"/>
	<path class="st0" d="M75.55,41.89l2.74-4.39h2.34l-4.15,6.32v4.72h-1.96v-4.72l-4.15-6.32h2.47L75.55,41.89z"/>
</g>
</svg>
