<?xml version="1.0" encoding="utf-8"?>
<!-- Generator: Adobe Illustrator 28.0.0, SVG Export Plug-In . SVG Version: 6.00 Build 0)  -->
<svg version="1.1" id="Layer_1" xmlns="http://www.w3.org/2000/svg" xmlns:xlink="http://www.w3.org/1999/xlink" x="0px" y="0px"
	 viewBox="0 0 90 90" style="enable-background:new 0 0 90 90;" xml:space="preserve">
<style type="text/css">
	.st0{fill:#616C72;}
	.st1{fill:#D42027;}
</style>
<g>
	<g>
		<path class="st0" d="M48.23,36.54c-1.09-0.42-2.29-0.65-3.54-0.65c-0.14,0-0.27,0-0.42,0.01c-0.81,0.04-1.58,0.16-2.32,0.38
			l3.02-19.1l2.7,16.01L48.23,36.54z"/>
		<path class="st0" d="M54.11,48.88c0.31-0.96,0.5-2.01,0.5-3.08c0-0.14,0-0.29-0.01-0.42c-0.04-1.03-0.23-2.01-0.57-2.93l1.89,0.3
			l17.85,2.83L54.11,48.88z"/>
		<g>
			<path class="st0" d="M48.02,55.14l-3,18.96l-2.85-16.94l-0.31-1.84c0.68,0.21,1.39,0.34,2.14,0.39c0.22,0.01,0.46,0.03,0.68,0.03
				C45.86,55.71,46.98,55.51,48.02,55.14z"/>
			<path class="st0" d="M34.9,47.37c0.07,0.44,0.17,0.89,0.3,1.32l-0.91-0.14l-18.05-2.85l19.1-3.22c-0.36,1.04-0.57,2.16-0.57,3.34
				C34.78,46.34,34.82,46.86,34.9,47.37z"/>
		</g>
		<path class="st1" d="M38.32,53.39L21.04,74L34.3,48.54l0.61-1.17c0.07,0.44,0.17,0.89,0.3,1.32
			C35.77,50.55,36.87,52.16,38.32,53.39z"/>
		<path d="M44.01,55.68l-1.82,1.46L21.04,74l17.28-20.61c1.03,0.86,2.24,1.52,3.56,1.92C42.55,55.5,43.27,55.63,44.01,55.68z"/>
		<path class="st1" d="M69.34,15.92L55.89,42.76l-1.32,2.63c-0.04-1.03-0.23-2.01-0.57-2.93c-0.64-1.76-1.75-3.3-3.19-4.44
			L69.34,15.92z"/>
		<path d="M69.34,15.92l-18.52,22.1c-0.78-0.61-1.64-1.11-2.59-1.47c-1.09-0.42-2.29-0.65-3.54-0.65c-0.14,0-0.27,0-0.42,0.01
			l3.39-2.71L69.34,15.92z"/>
		<path class="st1" d="M24.05,43.8l-2.14,0.38c0.74-11.47,9.85-20.72,21.42-21.99l-0.5,3.27C32.91,26.31,24.75,33.79,24.05,43.8z"/>
		<path class="st1" d="M24.09,47.54c0.33,3.8,1.67,7.66,4.05,10.98l-0.86,1.85c-3.08-3.77-5.06-8.37-5.37-13.28L24.09,47.54z"/>
		<path class="st1" d="M43.44,67.83l0.26,1.86c-3.92-0.55-7.62-2.03-10.83-4.21l1.39-1.16C36.83,65.96,39.89,67.19,43.44,67.83z"/>
		<path class="st1" d="M51.46,69.51c-1.42,0.27-2.91,0.42-4.43,0.42c-0.26,0-0.53,0-0.79-0.01l0.4-1.68c1.5,0.1,3.09,0.12,4.74,0.01
			h0.04L51.46,69.51z"/>
		<path class="st1" d="M57.05,24.65l-2.93,2.31c-2.18-0.86-4.5-1.38-6.88-1.51l-0.59-3.39C50.39,22.13,53.93,23.07,57.05,24.65z"/>
		<path class="st1" d="M67.07,34.12l-3.3,0.07c-0.55-0.72-1.13-1.39-1.77-2.03l1.32-2.93C64.78,30.68,66.03,32.33,67.07,34.12z"/>
		<path class="st1" d="M51.2,45.95c0,3.52-2.87,6.37-6.41,6.37c-1.3,0-2.51-0.39-3.53-1.06l0.64-0.4c0.85,0.43,1.81,0.68,2.84,0.68
			c3.32,0,6.02-2.58,6.02-5.76s-2.7-5.76-6.02-5.76c-1.34,0-2.58,0.42-3.57,1.12L40.78,41c1.09-0.89,2.5-1.41,4.03-1.41
			C48.34,39.58,51.2,42.43,51.2,45.95z"/>
	</g>
</g>
</svg>
