<?xml version="1.0" encoding="utf-8"?>
<!-- Generator: Adobe Illustrator 28.0.0, SVG Export Plug-In . SVG Version: 6.00 Build 0)  -->
<svg version="1.1" id="Layer_1" xmlns="http://www.w3.org/2000/svg" xmlns:xlink="http://www.w3.org/1999/xlink" x="0px" y="0px"
	 viewBox="0 0 90 90" style="enable-background:new 0 0 90 90;" xml:space="preserve">
<style type="text/css">
	.st0{fill:#1E2F38;}
	.st1{fill:url(#SVGID_1_);}
</style>
<g>
	<g>
		<path class="st0" d="M35.63,52.15c-0.93,0.97-5.82,4.38-7.05,5.1c-1.21,0.72-2.5,1.28-3.83,1.67c-1.33,0.39-2.69,0.58-4.06,0.58
			c-2.06,0-4-0.35-5.78-1.11c-1.8-0.73-3.36-1.76-4.68-3.07c-1.33-1.33-2.38-2.87-3.13-4.64c-0.16-0.35-0.27-0.67-0.39-1.02
			l-0.41-1.53c-0.07-0.29-0.12-0.59-0.17-0.89c-0.11-0.73-0.04-1.48,0.19-2.18l0.18-0.57c1.75-5.39,6.68-9.02,12.33-9.11
			c-1.01,0.26-1.97,0.66-2.87,1.19c-0.11,0.07-0.22,0.14-0.33,0.21c-0.5,0.35-0.95,0.72-1.38,1.16c-0.87,0.91-1.54,1.95-2.03,3.14
			s-0.74,2.47-0.74,3.83c0,1.38,0.25,2.67,0.74,3.86c0.49,1.2,1.16,2.23,2.03,3.12c0.88,0.9,1.89,1.6,3.03,2.11
			c1.14,0.5,2.38,0.77,3.69,0.77c1.37,0,2.73-0.31,4.08-0.91c1.34-0.6,7.89-4.75,8.93-5.8L35.63,52.15z"/>
		<g>
			<path class="st0" d="M31.81,35.06l-3.16,3.72c-1.7-1.67-3.83-2.91-6.2-3.51h-0.02c-1.09-0.3-2.23-0.44-3.41-0.44
				c-6.09,0-11.26,3.98-13.04,9.5c0.08-1.8,0.45-3.45,1.12-5.01c0.75-1.73,1.81-3.25,3.19-4.58c1.37-1.31,2.95-2.34,4.73-3.06
				c1.8-0.73,3.75-1.09,5.87-1.09c1.37,0,2.7,0.19,4.01,0.55c1.31,0.36,2.55,0.87,3.73,1.53C29.84,33.31,30.89,34.12,31.81,35.06z"
				/>
		</g>
		<linearGradient id="SVGID_1_" gradientUnits="userSpaceOnUse" x1="37.1452" y1="47.653" x2="28.0396" y2="54.3442">
			<stop  offset="0.0235" style="stop-color:#000000"/>
			<stop  offset="0.2535" style="stop-color:#3D3D3D;stop-opacity:0.7631"/>
			<stop  offset="0.9946" style="stop-color:#FFFFFF;stop-opacity:0"/>
		</linearGradient>
		<path class="st1" d="M35.63,52.15c-0.93,0.97-5.82,4.38-7.05,5.1c-1.21,0.72-2.5,1.28-3.83,1.67c-1.15,0.34-2.32,0.52-3.51,0.57
			l1.73-4.96c0.7-0.15,1.39-0.38,2.08-0.69c1.34-0.6,7.89-4.75,8.93-5.8L35.63,52.15z"/>
		<path class="st0" d="M84.01,51.11c0,1.75-0.47,3.26-1.41,4.49c-0.93,1.23-2.21,2.18-3.85,2.86c-1.62,0.67-3.48,1.02-5.54,1.02
			c-1.5,0-2.99-0.21-4.42-0.6c-0.58-0.14-1.15-0.32-1.7-0.53c-0.7-0.26-1.79-0.8-2.43-1.19l-0.61-0.37
			c-1.05-0.56-2.25-0.89-3.53-0.89c-1.29,0-2.45,0.15-3.54,0.89l-0.75,0.47c-1.22,0.72-2.5,1.28-3.83,1.67
			c-1.33,0.39-2.69,0.58-4.06,0.58c-2.06,0-4-0.35-5.79-1.11c-1.79-0.73-3.36-1.76-4.68-3.07h-0.01c-0.34-0.33-0.64-0.67-0.92-1.04
			c-0.28-0.35-0.55-0.68-0.78-1.05c-0.05-0.05-0.07-0.11-0.12-0.17c-0.13-0.18-0.23-0.36-0.35-0.55c-0.07-0.09-0.11-0.19-0.18-0.28
			c-0.05-0.09-0.1-0.19-0.14-0.28c-0.23-0.41-0.45-0.83-0.63-1.28c-0.07-0.15-0.11-0.29-0.16-0.43c-0.07-0.2-0.14-0.38-0.21-0.59
			l-0.43-1.53c0-0.02,0.02-0.02,0.02-0.04c0-0.01,0-0.01,0-0.03c-0.07-0.27-0.12-0.55-0.16-0.83c-0.12-0.74-0.04-1.5,0.2-2.21
			l0.18-0.54c1.74-5.39,6.68-9.03,12.34-9.11c-1.01,0.25-1.97,0.66-2.88,1.19c-0.11,0.07-0.22,0.14-0.34,0.21
			c-0.24,0.17-0.49,0.35-0.7,0.53c-0.23,0.19-0.46,0.4-0.67,0.63c-0.21,0.21-0.42,0.47-0.63,0.7c-0.58,0.74-1.05,1.55-1.41,2.44
			c-0.26,0.67-0.47,1.36-0.59,2.09c-0.03,0.24-0.07,0.49-0.09,0.74c-0.04,0.33-0.05,0.65-0.05,1c0,0.35,0.01,0.69,0.05,1.02
			c0.03,0.25,0.07,0.5,0.09,0.74c0.12,0.73,0.33,1.44,0.59,2.11c0.36,0.91,0.83,1.7,1.41,2.44c0.21,0.23,0.41,0.47,0.63,0.68
			c0.88,0.9,1.89,1.6,3.03,2.11c1.14,0.5,2.37,0.77,3.69,0.77c1.37,0,2.73-0.31,4.08-0.91c0.07-0.04,0.19-0.09,0.31-0.16
			c0.81-0.37,2.3-1.09,3.73-1.97c1.86-1.11,4.08-1.34,6.09-0.67c0.41,0.12,0.81,0.3,1.2,0.5c1.09,0.59,2.13,1.01,2.6,1.28
			c1.15,0.64,2.27,1.12,3.42,1.47c1.14,0.33,2.2,0.5,3.2,0.5c1.53,0,2.73-0.3,3.57-0.9c0.85-0.59,1.27-1.42,1.27-2.49
			c0-0.9-0.26-1.6-0.83-2.15c-0.54-0.53-1.26-0.98-2.16-1.35c-0.89-0.36-1.88-0.67-2.97-0.95c-1.09-0.3-2.17-0.63-3.25-1.02
			c-1.07-0.39-2.06-0.9-2.97-1.5c-0.89-0.6-1.62-1.37-2.17-2.31c-0.56-0.95-0.82-2.14-0.82-3.59c0-1.63,0.44-3.06,1.33-4.25
			c0.89-1.2,2.13-2.13,3.7-2.8c1.79-0.75,3.97-1.07,6.48-0.96c1.52,0.06,3.01,0.33,4.47,0.77c1.83,0.53,3.43,1.25,4.8,2.17
			l-3.25,3.82c-0.66-0.35-1.32-0.66-1.99-0.92c-1.03-0.39-2-0.69-2.92-0.86c-0.91-0.17-1.75-0.27-2.5-0.27
			c-1.26,0-2.26,0.24-3.04,0.74c-0.77,0.49-1.16,1.19-1.16,2.14c0,0.87,0.28,1.57,0.84,2.1c0.55,0.53,1.27,0.98,2.17,1.33
			c0.91,0.36,1.89,0.69,2.97,1.02c1.08,0.31,2.14,0.67,3.24,1.06c1.05,0.38,2.04,0.89,2.95,1.51c0.91,0.63,1.62,1.41,2.16,2.39
			C83.75,48.46,84.01,49.67,84.01,51.11z"/>
		<g>
			<path class="st0" d="M59.45,35.06l-3.16,3.72c-1.7-1.67-3.83-2.91-6.2-3.51h-0.02c-1.09-0.3-2.23-0.44-3.41-0.44
				c-6.09,0-11.26,3.98-13.04,9.5c0.08-1.8,0.45-3.45,1.12-5.01c0.75-1.73,1.81-3.25,3.19-4.58c1.37-1.31,2.95-2.34,4.73-3.06
				c1.8-0.73,3.75-1.09,5.87-1.09c1.37,0,2.7,0.19,4.01,0.55c1.31,0.36,2.55,0.87,3.73,1.53C57.49,33.31,58.53,34.12,59.45,35.06z"
				/>
		</g>
	</g>
</g>
</svg>
