<?xml version="1.0" encoding="utf-8"?>
<!-- Generator: Adobe Illustrator 28.0.0, SVG Export Plug-In . SVG Version: 6.00 Build 0)  -->
<svg version="1.1" id="Layer_1" xmlns="http://www.w3.org/2000/svg" xmlns:xlink="http://www.w3.org/1999/xlink" x="0px" y="0px"
	 viewBox="0 0 25.45 38.28" style="enable-background:new 0 0 25.45 38.28;" xml:space="preserve">
<style type="text/css">
	.st0{fill:#FFFFFF;}
</style>
<g>
	<path class="st0" d="M12.72,37.36c-6.57,0-11.92-5.35-11.92-11.92V12.85c0-6.57,5.35-11.92,11.92-11.92
		c6.57,0,11.92,5.35,11.92,11.92v12.59C24.65,32.01,19.3,37.36,12.72,37.36z M12.72,3.25c-5.29,0-9.6,4.31-9.6,9.6v12.59
		c0,5.29,4.31,9.6,9.6,9.6s9.6-4.31,9.6-9.6V12.85C22.32,7.55,18.02,3.25,12.72,3.25z"/>
	<path class="st0" d="M12.72,13.81c-0.64,0-1.16-0.52-1.16-1.16V8.85c0-0.64,0.52-1.16,1.16-1.16s1.16,0.52,1.16,1.16v3.79
		C13.89,13.29,13.37,13.81,12.72,13.81z"/>
</g>
</svg>
